<mxfile host="app.diagrams.net" modified="2024-05-26T16:49:25.124Z" agent="Mozilla/5.0 (Windows NT 10.0; Win64; x64) AppleWebKit/537.36 (KHTML, like Gecko) Chrome/125.0.0.0 Safari/537.36" etag="AyETfBqvoejFddcmmpAx" version="24.4.8" type="github">
  <diagram id="C5RBs43oDa-KdzZeNtuy" name="Page-1">
    <mxGraphModel dx="855" dy="1072" grid="1" gridSize="10" guides="1" tooltips="1" connect="1" arrows="1" fold="1" page="1" pageScale="1" pageWidth="827" pageHeight="1169" math="0" shadow="0">
      <root>
        <mxCell id="WIyWlLk6GJQsqaUBKTNV-0" />
        <mxCell id="WIyWlLk6GJQsqaUBKTNV-1" parent="WIyWlLk6GJQsqaUBKTNV-0" />
        <mxCell id="Ey64inOWy0BKPsAIOaYD-73" style="edgeStyle=none;curved=1;rounded=0;orthogonalLoop=1;jettySize=auto;html=1;exitX=0;exitY=1;exitDx=0;exitDy=0;entryX=1;entryY=0.5;entryDx=0;entryDy=0;fontSize=12;startSize=8;endSize=8;" edge="1" parent="WIyWlLk6GJQsqaUBKTNV-1" source="Ey64inOWy0BKPsAIOaYD-72" target="Ey64inOWy0BKPsAIOaYD-55">
          <mxGeometry relative="1" as="geometry" />
        </mxCell>
        <mxCell id="Ey64inOWy0BKPsAIOaYD-72" value="" style="ellipse;whiteSpace=wrap;html=1;" vertex="1" parent="WIyWlLk6GJQsqaUBKTNV-1">
          <mxGeometry x="1055" y="400" width="90" height="50" as="geometry" />
        </mxCell>
        <mxCell id="Ey64inOWy0BKPsAIOaYD-46" value="" style="ellipse;whiteSpace=wrap;html=1;" vertex="1" parent="WIyWlLk6GJQsqaUBKTNV-1">
          <mxGeometry x="540" y="120" width="90" height="40" as="geometry" />
        </mxCell>
        <mxCell id="WIyWlLk6GJQsqaUBKTNV-3" value="User" style="rounded=1;whiteSpace=wrap;html=1;fontSize=12;glass=0;strokeWidth=1;shadow=0;" parent="WIyWlLk6GJQsqaUBKTNV-1" vertex="1">
          <mxGeometry x="270" y="160" width="130" height="50" as="geometry" />
        </mxCell>
        <mxCell id="WIyWlLk6GJQsqaUBKTNV-7" value="Order" style="rounded=1;whiteSpace=wrap;html=1;fontSize=12;glass=0;strokeWidth=1;shadow=0;" parent="WIyWlLk6GJQsqaUBKTNV-1" vertex="1">
          <mxGeometry x="720" y="200" width="120" height="40" as="geometry" />
        </mxCell>
        <mxCell id="Ey64inOWy0BKPsAIOaYD-27" style="edgeStyle=none;curved=1;rounded=0;orthogonalLoop=1;jettySize=auto;html=1;exitX=0.5;exitY=1;exitDx=0;exitDy=0;entryX=0;entryY=0.5;entryDx=0;entryDy=0;fontSize=12;startSize=8;endSize=8;" edge="1" parent="WIyWlLk6GJQsqaUBKTNV-1" source="Ey64inOWy0BKPsAIOaYD-7" target="WIyWlLk6GJQsqaUBKTNV-3">
          <mxGeometry relative="1" as="geometry" />
        </mxCell>
        <mxCell id="Ey64inOWy0BKPsAIOaYD-7" value="" style="ellipse;whiteSpace=wrap;html=1;" vertex="1" parent="WIyWlLk6GJQsqaUBKTNV-1">
          <mxGeometry x="70" y="140" width="90" height="50" as="geometry" />
        </mxCell>
        <mxCell id="Ey64inOWy0BKPsAIOaYD-8" value="user_id" style="text;html=1;align=center;verticalAlign=middle;whiteSpace=wrap;rounded=0;fontSize=16;" vertex="1" parent="WIyWlLk6GJQsqaUBKTNV-1">
          <mxGeometry x="85" y="150" width="60" height="30" as="geometry" />
        </mxCell>
        <mxCell id="Ey64inOWy0BKPsAIOaYD-22" style="edgeStyle=none;curved=1;rounded=0;orthogonalLoop=1;jettySize=auto;html=1;exitX=0.5;exitY=1;exitDx=0;exitDy=0;entryX=0.5;entryY=0;entryDx=0;entryDy=0;fontSize=12;startSize=8;endSize=8;" edge="1" parent="WIyWlLk6GJQsqaUBKTNV-1" source="Ey64inOWy0BKPsAIOaYD-10" target="WIyWlLk6GJQsqaUBKTNV-3">
          <mxGeometry relative="1" as="geometry" />
        </mxCell>
        <mxCell id="Ey64inOWy0BKPsAIOaYD-10" value="" style="ellipse;whiteSpace=wrap;html=1;" vertex="1" parent="WIyWlLk6GJQsqaUBKTNV-1">
          <mxGeometry x="290" y="10" width="90" height="50" as="geometry" />
        </mxCell>
        <mxCell id="Ey64inOWy0BKPsAIOaYD-11" value="username" style="text;html=1;align=center;verticalAlign=middle;whiteSpace=wrap;rounded=0;fontSize=16;" vertex="1" parent="WIyWlLk6GJQsqaUBKTNV-1">
          <mxGeometry x="310" y="20" width="60" height="30" as="geometry" />
        </mxCell>
        <mxCell id="Ey64inOWy0BKPsAIOaYD-23" style="edgeStyle=none;curved=1;rounded=0;orthogonalLoop=1;jettySize=auto;html=1;exitX=0.5;exitY=1;exitDx=0;exitDy=0;entryX=1;entryY=0.5;entryDx=0;entryDy=0;fontSize=12;startSize=8;endSize=8;" edge="1" parent="WIyWlLk6GJQsqaUBKTNV-1" source="Ey64inOWy0BKPsAIOaYD-12" target="WIyWlLk6GJQsqaUBKTNV-3">
          <mxGeometry relative="1" as="geometry" />
        </mxCell>
        <mxCell id="Ey64inOWy0BKPsAIOaYD-12" value="" style="ellipse;whiteSpace=wrap;html=1;" vertex="1" parent="WIyWlLk6GJQsqaUBKTNV-1">
          <mxGeometry x="414" y="40" width="90" height="50" as="geometry" />
        </mxCell>
        <mxCell id="Ey64inOWy0BKPsAIOaYD-13" value="email" style="text;html=1;align=center;verticalAlign=middle;whiteSpace=wrap;rounded=0;fontSize=16;" vertex="1" parent="WIyWlLk6GJQsqaUBKTNV-1">
          <mxGeometry x="429" y="50" width="60" height="30" as="geometry" />
        </mxCell>
        <mxCell id="Ey64inOWy0BKPsAIOaYD-26" style="edgeStyle=none;curved=1;rounded=0;orthogonalLoop=1;jettySize=auto;html=1;exitX=0.5;exitY=1;exitDx=0;exitDy=0;fontSize=12;startSize=8;endSize=8;" edge="1" parent="WIyWlLk6GJQsqaUBKTNV-1" source="Ey64inOWy0BKPsAIOaYD-14" target="WIyWlLk6GJQsqaUBKTNV-3">
          <mxGeometry relative="1" as="geometry" />
        </mxCell>
        <mxCell id="Ey64inOWy0BKPsAIOaYD-14" value="" style="ellipse;whiteSpace=wrap;html=1;" vertex="1" parent="WIyWlLk6GJQsqaUBKTNV-1">
          <mxGeometry x="105" y="70" width="90" height="50" as="geometry" />
        </mxCell>
        <mxCell id="Ey64inOWy0BKPsAIOaYD-15" value="phone_no" style="text;html=1;align=center;verticalAlign=middle;whiteSpace=wrap;rounded=0;fontSize=16;" vertex="1" parent="WIyWlLk6GJQsqaUBKTNV-1">
          <mxGeometry x="120" y="80" width="60" height="30" as="geometry" />
        </mxCell>
        <mxCell id="Ey64inOWy0BKPsAIOaYD-24" style="edgeStyle=none;curved=1;rounded=0;orthogonalLoop=1;jettySize=auto;html=1;exitX=0.5;exitY=1;exitDx=0;exitDy=0;entryX=0.25;entryY=0;entryDx=0;entryDy=0;fontSize=12;startSize=8;endSize=8;" edge="1" parent="WIyWlLk6GJQsqaUBKTNV-1" source="Ey64inOWy0BKPsAIOaYD-16" target="WIyWlLk6GJQsqaUBKTNV-3">
          <mxGeometry relative="1" as="geometry" />
        </mxCell>
        <mxCell id="Ey64inOWy0BKPsAIOaYD-16" value="" style="ellipse;whiteSpace=wrap;html=1;" vertex="1" parent="WIyWlLk6GJQsqaUBKTNV-1">
          <mxGeometry x="180" y="20" width="90" height="50" as="geometry" />
        </mxCell>
        <mxCell id="Ey64inOWy0BKPsAIOaYD-17" value="address" style="text;html=1;align=center;verticalAlign=middle;whiteSpace=wrap;rounded=0;fontSize=16;" vertex="1" parent="WIyWlLk6GJQsqaUBKTNV-1">
          <mxGeometry x="195" y="30" width="60" height="30" as="geometry" />
        </mxCell>
        <mxCell id="Ey64inOWy0BKPsAIOaYD-38" value="" style="ellipse;whiteSpace=wrap;html=1;" vertex="1" parent="WIyWlLk6GJQsqaUBKTNV-1">
          <mxGeometry x="740" y="50" width="110" height="50" as="geometry" />
        </mxCell>
        <mxCell id="Ey64inOWy0BKPsAIOaYD-39" value="total_amount&lt;div&gt;&lt;br&gt;&lt;/div&gt;" style="text;html=1;align=center;verticalAlign=middle;whiteSpace=wrap;rounded=0;fontSize=16;" vertex="1" parent="WIyWlLk6GJQsqaUBKTNV-1">
          <mxGeometry x="750" y="70" width="90" height="30" as="geometry" />
        </mxCell>
        <mxCell id="Ey64inOWy0BKPsAIOaYD-54" style="edgeStyle=none;curved=1;rounded=0;orthogonalLoop=1;jettySize=auto;html=1;entryX=1;entryY=0.25;entryDx=0;entryDy=0;fontSize=12;startSize=8;endSize=8;" edge="1" parent="WIyWlLk6GJQsqaUBKTNV-1" source="Ey64inOWy0BKPsAIOaYD-40" target="WIyWlLk6GJQsqaUBKTNV-7">
          <mxGeometry relative="1" as="geometry" />
        </mxCell>
        <mxCell id="Ey64inOWy0BKPsAIOaYD-40" value="" style="ellipse;whiteSpace=wrap;html=1;" vertex="1" parent="WIyWlLk6GJQsqaUBKTNV-1">
          <mxGeometry x="864" y="80" width="90" height="50" as="geometry" />
        </mxCell>
        <mxCell id="Ey64inOWy0BKPsAIOaYD-41" value="user_id" style="text;html=1;align=center;verticalAlign=middle;whiteSpace=wrap;rounded=0;fontSize=16;" vertex="1" parent="WIyWlLk6GJQsqaUBKTNV-1">
          <mxGeometry x="879" y="90" width="60" height="30" as="geometry" />
        </mxCell>
        <mxCell id="Ey64inOWy0BKPsAIOaYD-51" style="edgeStyle=none;curved=1;rounded=0;orthogonalLoop=1;jettySize=auto;html=1;exitX=1;exitY=1;exitDx=0;exitDy=0;entryX=0;entryY=0.5;entryDx=0;entryDy=0;fontSize=12;startSize=8;endSize=8;" edge="1" parent="WIyWlLk6GJQsqaUBKTNV-1" source="Ey64inOWy0BKPsAIOaYD-42" target="WIyWlLk6GJQsqaUBKTNV-7">
          <mxGeometry relative="1" as="geometry" />
        </mxCell>
        <mxCell id="Ey64inOWy0BKPsAIOaYD-42" value="order_id" style="text;html=1;align=center;verticalAlign=middle;whiteSpace=wrap;rounded=0;fontSize=16;" vertex="1" parent="WIyWlLk6GJQsqaUBKTNV-1">
          <mxGeometry x="555" y="125" width="60" height="30" as="geometry" />
        </mxCell>
        <mxCell id="Ey64inOWy0BKPsAIOaYD-43" value="" style="ellipse;whiteSpace=wrap;html=1;" vertex="1" parent="WIyWlLk6GJQsqaUBKTNV-1">
          <mxGeometry x="630" y="60" width="90" height="40" as="geometry" />
        </mxCell>
        <mxCell id="Ey64inOWy0BKPsAIOaYD-52" style="edgeStyle=none;curved=1;rounded=0;orthogonalLoop=1;jettySize=auto;html=1;fontSize=12;startSize=8;endSize=8;" edge="1" parent="WIyWlLk6GJQsqaUBKTNV-1" source="Ey64inOWy0BKPsAIOaYD-44" target="WIyWlLk6GJQsqaUBKTNV-7">
          <mxGeometry relative="1" as="geometry" />
        </mxCell>
        <mxCell id="Ey64inOWy0BKPsAIOaYD-44" value="order_date" style="text;html=1;align=center;verticalAlign=middle;whiteSpace=wrap;rounded=0;fontSize=16;" vertex="1" parent="WIyWlLk6GJQsqaUBKTNV-1">
          <mxGeometry x="645" y="65" width="60" height="30" as="geometry" />
        </mxCell>
        <mxCell id="Ey64inOWy0BKPsAIOaYD-53" style="edgeStyle=none;curved=1;rounded=0;orthogonalLoop=1;jettySize=auto;html=1;exitX=0.5;exitY=1;exitDx=0;exitDy=0;entryX=0.622;entryY=0.014;entryDx=0;entryDy=0;entryPerimeter=0;fontSize=12;startSize=8;endSize=8;" edge="1" parent="WIyWlLk6GJQsqaUBKTNV-1" source="Ey64inOWy0BKPsAIOaYD-39" target="WIyWlLk6GJQsqaUBKTNV-7">
          <mxGeometry relative="1" as="geometry" />
        </mxCell>
        <mxCell id="Ey64inOWy0BKPsAIOaYD-55" value="Review" style="rounded=1;whiteSpace=wrap;html=1;fontSize=12;glass=0;strokeWidth=1;shadow=0;" vertex="1" parent="WIyWlLk6GJQsqaUBKTNV-1">
          <mxGeometry x="860" y="430" width="130" height="50" as="geometry" />
        </mxCell>
        <mxCell id="Ey64inOWy0BKPsAIOaYD-56" style="edgeStyle=none;curved=1;rounded=0;orthogonalLoop=1;jettySize=auto;html=1;exitX=0.5;exitY=1;exitDx=0;exitDy=0;entryX=0;entryY=0.5;entryDx=0;entryDy=0;fontSize=12;startSize=8;endSize=8;" edge="1" parent="WIyWlLk6GJQsqaUBKTNV-1" source="Ey64inOWy0BKPsAIOaYD-57" target="Ey64inOWy0BKPsAIOaYD-55">
          <mxGeometry relative="1" as="geometry" />
        </mxCell>
        <mxCell id="Ey64inOWy0BKPsAIOaYD-57" value="" style="ellipse;whiteSpace=wrap;html=1;" vertex="1" parent="WIyWlLk6GJQsqaUBKTNV-1">
          <mxGeometry x="660" y="410" width="90" height="50" as="geometry" />
        </mxCell>
        <mxCell id="Ey64inOWy0BKPsAIOaYD-58" value="review_id" style="text;html=1;align=center;verticalAlign=middle;whiteSpace=wrap;rounded=0;fontSize=16;" vertex="1" parent="WIyWlLk6GJQsqaUBKTNV-1">
          <mxGeometry x="675" y="420" width="60" height="30" as="geometry" />
        </mxCell>
        <mxCell id="Ey64inOWy0BKPsAIOaYD-59" style="edgeStyle=none;curved=1;rounded=0;orthogonalLoop=1;jettySize=auto;html=1;exitX=0.5;exitY=1;exitDx=0;exitDy=0;entryX=0.5;entryY=0;entryDx=0;entryDy=0;fontSize=12;startSize=8;endSize=8;" edge="1" parent="WIyWlLk6GJQsqaUBKTNV-1" source="Ey64inOWy0BKPsAIOaYD-60" target="Ey64inOWy0BKPsAIOaYD-55">
          <mxGeometry relative="1" as="geometry" />
        </mxCell>
        <mxCell id="Ey64inOWy0BKPsAIOaYD-60" value="" style="ellipse;whiteSpace=wrap;html=1;" vertex="1" parent="WIyWlLk6GJQsqaUBKTNV-1">
          <mxGeometry x="880" y="280" width="90" height="50" as="geometry" />
        </mxCell>
        <mxCell id="Ey64inOWy0BKPsAIOaYD-61" value="review_date" style="text;html=1;align=center;verticalAlign=middle;whiteSpace=wrap;rounded=0;fontSize=16;" vertex="1" parent="WIyWlLk6GJQsqaUBKTNV-1">
          <mxGeometry x="900" y="290" width="60" height="30" as="geometry" />
        </mxCell>
        <mxCell id="Ey64inOWy0BKPsAIOaYD-62" style="edgeStyle=none;curved=1;rounded=0;orthogonalLoop=1;jettySize=auto;html=1;exitX=0.5;exitY=1;exitDx=0;exitDy=0;entryX=1;entryY=0.5;entryDx=0;entryDy=0;fontSize=12;startSize=8;endSize=8;" edge="1" parent="WIyWlLk6GJQsqaUBKTNV-1" source="Ey64inOWy0BKPsAIOaYD-63" target="Ey64inOWy0BKPsAIOaYD-55">
          <mxGeometry relative="1" as="geometry" />
        </mxCell>
        <mxCell id="Ey64inOWy0BKPsAIOaYD-63" value="" style="ellipse;whiteSpace=wrap;html=1;" vertex="1" parent="WIyWlLk6GJQsqaUBKTNV-1">
          <mxGeometry x="1004" y="310" width="90" height="50" as="geometry" />
        </mxCell>
        <mxCell id="Ey64inOWy0BKPsAIOaYD-64" value="user_id" style="text;html=1;align=center;verticalAlign=middle;whiteSpace=wrap;rounded=0;fontSize=16;" vertex="1" parent="WIyWlLk6GJQsqaUBKTNV-1">
          <mxGeometry x="1019" y="320" width="60" height="30" as="geometry" />
        </mxCell>
        <mxCell id="Ey64inOWy0BKPsAIOaYD-65" style="edgeStyle=none;curved=1;rounded=0;orthogonalLoop=1;jettySize=auto;html=1;exitX=0.5;exitY=1;exitDx=0;exitDy=0;fontSize=12;startSize=8;endSize=8;" edge="1" parent="WIyWlLk6GJQsqaUBKTNV-1" source="Ey64inOWy0BKPsAIOaYD-66" target="Ey64inOWy0BKPsAIOaYD-55">
          <mxGeometry relative="1" as="geometry" />
        </mxCell>
        <mxCell id="Ey64inOWy0BKPsAIOaYD-66" value="" style="ellipse;whiteSpace=wrap;html=1;" vertex="1" parent="WIyWlLk6GJQsqaUBKTNV-1">
          <mxGeometry x="695" y="340" width="90" height="50" as="geometry" />
        </mxCell>
        <mxCell id="Ey64inOWy0BKPsAIOaYD-67" value="rating" style="text;html=1;align=center;verticalAlign=middle;whiteSpace=wrap;rounded=0;fontSize=16;" vertex="1" parent="WIyWlLk6GJQsqaUBKTNV-1">
          <mxGeometry x="710" y="350" width="60" height="30" as="geometry" />
        </mxCell>
        <mxCell id="Ey64inOWy0BKPsAIOaYD-68" style="edgeStyle=none;curved=1;rounded=0;orthogonalLoop=1;jettySize=auto;html=1;exitX=0.5;exitY=1;exitDx=0;exitDy=0;entryX=0.25;entryY=0;entryDx=0;entryDy=0;fontSize=12;startSize=8;endSize=8;" edge="1" parent="WIyWlLk6GJQsqaUBKTNV-1" source="Ey64inOWy0BKPsAIOaYD-69" target="Ey64inOWy0BKPsAIOaYD-55">
          <mxGeometry relative="1" as="geometry" />
        </mxCell>
        <mxCell id="Ey64inOWy0BKPsAIOaYD-69" value="" style="ellipse;whiteSpace=wrap;html=1;" vertex="1" parent="WIyWlLk6GJQsqaUBKTNV-1">
          <mxGeometry x="770" y="290" width="90" height="50" as="geometry" />
        </mxCell>
        <mxCell id="Ey64inOWy0BKPsAIOaYD-70" value="comment" style="text;html=1;align=center;verticalAlign=middle;whiteSpace=wrap;rounded=0;fontSize=16;" vertex="1" parent="WIyWlLk6GJQsqaUBKTNV-1">
          <mxGeometry x="785" y="300" width="60" height="30" as="geometry" />
        </mxCell>
        <mxCell id="Ey64inOWy0BKPsAIOaYD-71" value="product_id" style="text;html=1;align=center;verticalAlign=middle;whiteSpace=wrap;rounded=0;fontSize=16;" vertex="1" parent="WIyWlLk6GJQsqaUBKTNV-1">
          <mxGeometry x="1070" y="410" width="60" height="30" as="geometry" />
        </mxCell>
        <mxCell id="Ey64inOWy0BKPsAIOaYD-74" value="Product" style="rounded=1;whiteSpace=wrap;html=1;fontSize=12;glass=0;strokeWidth=1;shadow=0;" vertex="1" parent="WIyWlLk6GJQsqaUBKTNV-1">
          <mxGeometry x="516" y="630" width="130" height="50" as="geometry" />
        </mxCell>
        <mxCell id="Ey64inOWy0BKPsAIOaYD-75" style="edgeStyle=none;curved=1;rounded=0;orthogonalLoop=1;jettySize=auto;html=1;exitX=0.5;exitY=1;exitDx=0;exitDy=0;entryX=0;entryY=0.5;entryDx=0;entryDy=0;fontSize=12;startSize=8;endSize=8;" edge="1" parent="WIyWlLk6GJQsqaUBKTNV-1" source="Ey64inOWy0BKPsAIOaYD-76" target="Ey64inOWy0BKPsAIOaYD-74">
          <mxGeometry relative="1" as="geometry" />
        </mxCell>
        <mxCell id="Ey64inOWy0BKPsAIOaYD-76" value="" style="ellipse;whiteSpace=wrap;html=1;" vertex="1" parent="WIyWlLk6GJQsqaUBKTNV-1">
          <mxGeometry x="320" y="610" width="86" height="40" as="geometry" />
        </mxCell>
        <mxCell id="Ey64inOWy0BKPsAIOaYD-77" value="price" style="text;html=1;align=center;verticalAlign=middle;whiteSpace=wrap;rounded=0;fontSize=16;" vertex="1" parent="WIyWlLk6GJQsqaUBKTNV-1">
          <mxGeometry x="331" y="620" width="60" height="20" as="geometry" />
        </mxCell>
        <mxCell id="Ey64inOWy0BKPsAIOaYD-78" style="edgeStyle=none;curved=1;rounded=0;orthogonalLoop=1;jettySize=auto;html=1;exitX=0.5;exitY=1;exitDx=0;exitDy=0;entryX=0.5;entryY=0;entryDx=0;entryDy=0;fontSize=12;startSize=8;endSize=8;" edge="1" parent="WIyWlLk6GJQsqaUBKTNV-1" source="Ey64inOWy0BKPsAIOaYD-79" target="Ey64inOWy0BKPsAIOaYD-74">
          <mxGeometry relative="1" as="geometry" />
        </mxCell>
        <mxCell id="Ey64inOWy0BKPsAIOaYD-79" value="" style="ellipse;whiteSpace=wrap;html=1;" vertex="1" parent="WIyWlLk6GJQsqaUBKTNV-1">
          <mxGeometry x="536" y="480" width="94" height="50" as="geometry" />
        </mxCell>
        <mxCell id="Ey64inOWy0BKPsAIOaYD-80" value="product_id" style="text;html=1;align=center;verticalAlign=middle;whiteSpace=wrap;rounded=0;fontSize=16;" vertex="1" parent="WIyWlLk6GJQsqaUBKTNV-1">
          <mxGeometry x="556" y="490" width="60" height="30" as="geometry" />
        </mxCell>
        <mxCell id="Ey64inOWy0BKPsAIOaYD-82" style="edgeStyle=none;curved=1;rounded=0;orthogonalLoop=1;jettySize=auto;html=1;exitX=0.5;exitY=1;exitDx=0;exitDy=0;fontSize=12;startSize=8;endSize=8;" edge="1" parent="WIyWlLk6GJQsqaUBKTNV-1" source="Ey64inOWy0BKPsAIOaYD-83" target="Ey64inOWy0BKPsAIOaYD-74">
          <mxGeometry relative="1" as="geometry" />
        </mxCell>
        <mxCell id="Ey64inOWy0BKPsAIOaYD-83" value="" style="ellipse;whiteSpace=wrap;html=1;" vertex="1" parent="WIyWlLk6GJQsqaUBKTNV-1">
          <mxGeometry x="330" y="540" width="111" height="50" as="geometry" />
        </mxCell>
        <mxCell id="Ey64inOWy0BKPsAIOaYD-84" value="product_desc" style="text;html=1;align=center;verticalAlign=middle;whiteSpace=wrap;rounded=0;fontSize=16;" vertex="1" parent="WIyWlLk6GJQsqaUBKTNV-1">
          <mxGeometry x="366" y="550" width="46" height="30" as="geometry" />
        </mxCell>
        <mxCell id="Ey64inOWy0BKPsAIOaYD-85" style="edgeStyle=none;curved=1;rounded=0;orthogonalLoop=1;jettySize=auto;html=1;exitX=0.5;exitY=1;exitDx=0;exitDy=0;entryX=0.25;entryY=0;entryDx=0;entryDy=0;fontSize=12;startSize=8;endSize=8;" edge="1" parent="WIyWlLk6GJQsqaUBKTNV-1" source="Ey64inOWy0BKPsAIOaYD-86" target="Ey64inOWy0BKPsAIOaYD-74">
          <mxGeometry relative="1" as="geometry" />
        </mxCell>
        <mxCell id="Ey64inOWy0BKPsAIOaYD-86" value="" style="ellipse;whiteSpace=wrap;html=1;" vertex="1" parent="WIyWlLk6GJQsqaUBKTNV-1">
          <mxGeometry x="410" y="490" width="106" height="50" as="geometry" />
        </mxCell>
        <mxCell id="Ey64inOWy0BKPsAIOaYD-87" value="product_name" style="text;html=1;align=center;verticalAlign=middle;whiteSpace=wrap;rounded=0;fontSize=16;" vertex="1" parent="WIyWlLk6GJQsqaUBKTNV-1">
          <mxGeometry x="433" y="500" width="60" height="30" as="geometry" />
        </mxCell>
        <mxCell id="Ey64inOWy0BKPsAIOaYD-91" style="edgeStyle=none;curved=1;rounded=0;orthogonalLoop=1;jettySize=auto;html=1;exitX=1;exitY=0.5;exitDx=0;exitDy=0;entryX=0;entryY=0.75;entryDx=0;entryDy=0;fontSize=12;startSize=8;endSize=8;" edge="1" parent="WIyWlLk6GJQsqaUBKTNV-1" source="Ey64inOWy0BKPsAIOaYD-88" target="Ey64inOWy0BKPsAIOaYD-74">
          <mxGeometry relative="1" as="geometry" />
        </mxCell>
        <mxCell id="Ey64inOWy0BKPsAIOaYD-88" value="" style="ellipse;whiteSpace=wrap;html=1;" vertex="1" parent="WIyWlLk6GJQsqaUBKTNV-1">
          <mxGeometry x="366" y="690" width="90" height="50" as="geometry" />
        </mxCell>
        <mxCell id="Ey64inOWy0BKPsAIOaYD-89" value="stock_qty" style="text;html=1;align=center;verticalAlign=middle;whiteSpace=wrap;rounded=0;fontSize=16;" vertex="1" parent="WIyWlLk6GJQsqaUBKTNV-1">
          <mxGeometry x="381" y="700" width="60" height="30" as="geometry" />
        </mxCell>
        <mxCell id="Ey64inOWy0BKPsAIOaYD-92" value="OrderItem" style="rounded=1;whiteSpace=wrap;html=1;fontSize=12;glass=0;strokeWidth=1;shadow=0;" vertex="1" parent="WIyWlLk6GJQsqaUBKTNV-1">
          <mxGeometry x="871" y="660" width="130" height="50" as="geometry" />
        </mxCell>
        <mxCell id="Ey64inOWy0BKPsAIOaYD-93" style="edgeStyle=none;curved=1;rounded=0;orthogonalLoop=1;jettySize=auto;html=1;exitX=0.5;exitY=1;exitDx=0;exitDy=0;entryX=0;entryY=0.5;entryDx=0;entryDy=0;fontSize=12;startSize=8;endSize=8;" edge="1" parent="WIyWlLk6GJQsqaUBKTNV-1" source="Ey64inOWy0BKPsAIOaYD-94" target="Ey64inOWy0BKPsAIOaYD-92">
          <mxGeometry relative="1" as="geometry" />
        </mxCell>
        <mxCell id="Ey64inOWy0BKPsAIOaYD-94" value="" style="ellipse;whiteSpace=wrap;html=1;" vertex="1" parent="WIyWlLk6GJQsqaUBKTNV-1">
          <mxGeometry x="675" y="640" width="86" height="40" as="geometry" />
        </mxCell>
        <mxCell id="Ey64inOWy0BKPsAIOaYD-95" value="order_id" style="text;html=1;align=center;verticalAlign=middle;whiteSpace=wrap;rounded=0;fontSize=16;" vertex="1" parent="WIyWlLk6GJQsqaUBKTNV-1">
          <mxGeometry x="686" y="650" width="60" height="20" as="geometry" />
        </mxCell>
        <mxCell id="Ey64inOWy0BKPsAIOaYD-96" style="edgeStyle=none;curved=1;rounded=0;orthogonalLoop=1;jettySize=auto;html=1;exitX=0.5;exitY=1;exitDx=0;exitDy=0;entryX=0.5;entryY=0;entryDx=0;entryDy=0;fontSize=12;startSize=8;endSize=8;" edge="1" parent="WIyWlLk6GJQsqaUBKTNV-1" source="Ey64inOWy0BKPsAIOaYD-97" target="Ey64inOWy0BKPsAIOaYD-92">
          <mxGeometry relative="1" as="geometry" />
        </mxCell>
        <mxCell id="Ey64inOWy0BKPsAIOaYD-97" value="" style="ellipse;whiteSpace=wrap;html=1;" vertex="1" parent="WIyWlLk6GJQsqaUBKTNV-1">
          <mxGeometry x="891" y="510" width="109" height="50" as="geometry" />
        </mxCell>
        <mxCell id="Ey64inOWy0BKPsAIOaYD-98" value="order_item_id" style="text;html=1;align=center;verticalAlign=middle;whiteSpace=wrap;rounded=0;fontSize=16;" vertex="1" parent="WIyWlLk6GJQsqaUBKTNV-1">
          <mxGeometry x="920" y="520" width="60" height="30" as="geometry" />
        </mxCell>
        <mxCell id="Ey64inOWy0BKPsAIOaYD-99" style="edgeStyle=none;curved=1;rounded=0;orthogonalLoop=1;jettySize=auto;html=1;exitX=0.5;exitY=1;exitDx=0;exitDy=0;fontSize=12;startSize=8;endSize=8;" edge="1" parent="WIyWlLk6GJQsqaUBKTNV-1" source="Ey64inOWy0BKPsAIOaYD-100" target="Ey64inOWy0BKPsAIOaYD-92">
          <mxGeometry relative="1" as="geometry" />
        </mxCell>
        <mxCell id="Ey64inOWy0BKPsAIOaYD-100" value="" style="ellipse;whiteSpace=wrap;html=1;" vertex="1" parent="WIyWlLk6GJQsqaUBKTNV-1">
          <mxGeometry x="685" y="570" width="111" height="50" as="geometry" />
        </mxCell>
        <mxCell id="Ey64inOWy0BKPsAIOaYD-101" value="price" style="text;html=1;align=center;verticalAlign=middle;whiteSpace=wrap;rounded=0;fontSize=16;" vertex="1" parent="WIyWlLk6GJQsqaUBKTNV-1">
          <mxGeometry x="721" y="580" width="46" height="30" as="geometry" />
        </mxCell>
        <mxCell id="Ey64inOWy0BKPsAIOaYD-102" style="edgeStyle=none;curved=1;rounded=0;orthogonalLoop=1;jettySize=auto;html=1;exitX=0.5;exitY=1;exitDx=0;exitDy=0;entryX=0.25;entryY=0;entryDx=0;entryDy=0;fontSize=12;startSize=8;endSize=8;" edge="1" parent="WIyWlLk6GJQsqaUBKTNV-1" source="Ey64inOWy0BKPsAIOaYD-103" target="Ey64inOWy0BKPsAIOaYD-92">
          <mxGeometry relative="1" as="geometry" />
        </mxCell>
        <mxCell id="Ey64inOWy0BKPsAIOaYD-103" value="" style="ellipse;whiteSpace=wrap;html=1;" vertex="1" parent="WIyWlLk6GJQsqaUBKTNV-1">
          <mxGeometry x="765" y="520" width="106" height="50" as="geometry" />
        </mxCell>
        <mxCell id="Ey64inOWy0BKPsAIOaYD-104" value="quantity" style="text;html=1;align=center;verticalAlign=middle;whiteSpace=wrap;rounded=0;fontSize=16;" vertex="1" parent="WIyWlLk6GJQsqaUBKTNV-1">
          <mxGeometry x="788" y="530" width="60" height="30" as="geometry" />
        </mxCell>
        <mxCell id="Ey64inOWy0BKPsAIOaYD-105" style="edgeStyle=none;curved=1;rounded=0;orthogonalLoop=1;jettySize=auto;html=1;exitX=1;exitY=0.5;exitDx=0;exitDy=0;entryX=0;entryY=0.75;entryDx=0;entryDy=0;fontSize=12;startSize=8;endSize=8;" edge="1" parent="WIyWlLk6GJQsqaUBKTNV-1" source="Ey64inOWy0BKPsAIOaYD-106" target="Ey64inOWy0BKPsAIOaYD-92">
          <mxGeometry relative="1" as="geometry" />
        </mxCell>
        <mxCell id="Ey64inOWy0BKPsAIOaYD-106" value="" style="ellipse;whiteSpace=wrap;html=1;" vertex="1" parent="WIyWlLk6GJQsqaUBKTNV-1">
          <mxGeometry x="721" y="720" width="90" height="50" as="geometry" />
        </mxCell>
        <mxCell id="Ey64inOWy0BKPsAIOaYD-107" value="product_id" style="text;html=1;align=center;verticalAlign=middle;whiteSpace=wrap;rounded=0;fontSize=16;" vertex="1" parent="WIyWlLk6GJQsqaUBKTNV-1">
          <mxGeometry x="736" y="730" width="60" height="30" as="geometry" />
        </mxCell>
      </root>
    </mxGraphModel>
  </diagram>
</mxfile>
